<?xml version="1.0" encoding="iso-8859-1"?>
<!-- Generator: Adobe Illustrator 19.0.0, SVG Export Plug-In . SVG Version: 6.00 Build 0)  -->
<svg xmlns="http://www.w3.org/2000/svg" xmlns:xlink="http://www.w3.org/1999/xlink" version="1.1" id="Capa_1" x="0px" y="0px" viewBox="0 0 496 496" style="enable-background:new 0 0 496 496;" xml:space="preserve" width="20" height="20">
<g>
	<g>
		<g>
			<path d="M16,64h288c8.824,0,16-7.176,16-16V16c0-8.824-7.176-16-16-16H16C7.176,0,0,7.176,0,16v32C0,56.824,7.176,64,16,64z      M16,16h288l0.008,32H16V16z" fill="#FFFFFF"/>
			<path d="M320,146.12c0-13.968-7.44-27.112-19.416-34.296L280,99.472V80h-16v28.528l28.344,17.008     c7.192,4.312,11.656,12.2,11.656,20.584V200H32v16h272v32h16V146.12z" fill="#FFFFFF"/>
			<path d="M16,456v-64h208v-16H16V146.12c0-8.384,4.464-16.264,11.656-20.576L50.216,112H216V96H56V80H40v19.472l-20.584,12.352     C7.44,119,0,132.152,0,146.12V456c0,22.056,17.944,40,40,40h144v-16H40C26.768,480,16,469.232,16,456z" fill="#FFFFFF"/>
			<rect x="232" y="96" width="16" height="16" fill="#FFFFFF"/>
			<path d="M184,360v-40h40v-48h-40v-40h-48v40H96v48h40v40H184z M112,304v-16h40v-40h16v40h40v16h-40v40h-16v-40H112z" fill="#FFFFFF"/>
			<path d="M480,416H176c-8.824,0-16,7.176-16,16v16c0,8.824,7.176,16,16,16h12.688l32,32h214.624l32-32H480c8.824,0,16-7.176,16-16     v-16C496,423.176,488.824,416,480,416z M428.688,480H227.312l-16-16h233.376L428.688,480z M176,448v-16h304l0.008,16H176z" fill="#FFFFFF"/>
			<path d="M376,400c22.056,0,40-17.944,40-40v-64c0-22.056-17.944-40-40-40c-22.056,0-40,17.944-40,40v64     C336,382.056,353.944,400,376,400z M352,296c0-13.232,10.768-24,24-24s24,10.768,24,24v24h-48V296z M352,336h48v24     c0,13.232-10.768,24-24,24s-24-10.768-24-24V336z" fill="#FFFFFF"/>
			<path d="M240,296v64c0,22.056,17.944,40,40,40c22.056,0,40-17.944,40-40v-64c0-22.056-17.944-40-40-40     C257.944,256,240,273.944,240,296z M304,360c0,13.232-10.768,24-24,24s-24-10.768-24-24v-24h48V360z M304,296v24h-48v-24     c0-13.232,10.768-24,24-24S304,282.768,304,296z" fill="#FFFFFF"/>
		</g>
	</g>
</g>
<g>
</g>
<g>
</g>
<g>
</g>
<g>
</g>
<g>
</g>
<g>
</g>
<g>
</g>
<g>
</g>
<g>
</g>
<g>
</g>
<g>
</g>
<g>
</g>
<g>
</g>
<g>
</g>
<g>
</g>
</svg>
