<?xml version="1.0"?>
<svg xmlns="http://www.w3.org/2000/svg" xmlns:xlink="http://www.w3.org/1999/xlink" version="1.1" id="Capa_1" x="0px" y="0px" viewBox="0 0 504.123 504.123" style="enable-background:new 0 0 504.123 504.123;" xml:space="preserve" width="30px" height="30px" class=""><g><circle style="fill:#FFFFFF" cx="270.178" cy="246.942" r="114.215" data-original="#4EBD9E" class="" data-old_color="#4EBD9E"/><g>
	<path style="fill:#FFFFFF" d="M270.178,254.818c-1.575,0-3.938-0.788-4.726-1.575c-2.363-1.575-3.151-4.726-2.363-7.877   l44.898-192.197c0.788-3.938,5.514-7.089,9.452-5.514c3.938,0.788,7.089,5.514,5.514,9.452l-41.748,176.443l155.963-68.529   c3.938-1.575,8.665,0,10.24,3.938c1.575,3.938,0,8.665-3.938,10.24l-170.929,75.618   C272.542,254.818,271.754,254.818,270.178,254.818z" data-original="#183651" class="" data-old_color="#183651"/>
	<path style="fill:#FFFFFF" d="M176.443,440.714c-1.575,0-2.363,0-3.938-0.788c-3.938-1.575-5.514-7.089-3.151-10.24   l94.523-185.895c1.575-2.363,3.938-3.938,6.302-3.938s5.514,0.788,7.089,3.151l138.634,185.895   c2.363,3.151,1.575,8.665-1.575,11.028c-3.151,2.363-8.665,1.575-11.028-1.575L271.754,261.908l-89.009,174.868   C181.957,439.138,178.806,440.714,176.443,440.714z" data-original="#183651" class="" data-old_color="#183651"/>
	<path style="fill:#FFFFFF" d="M270.178,254.818c-0.788,0-1.575,0-2.363-0.788L76.406,187.865   c-3.938-1.575-6.302-5.514-4.726-10.24c1.575-3.938,5.514-6.302,10.24-4.726l191.409,66.166c3.938,1.575,6.302,5.514,4.726,10.24   C277.268,252.455,274.117,254.818,270.178,254.818z" data-original="#183651" class="" data-old_color="#183651"/>
</g><circle style="fill:#FFFFFF" cx="270.178" cy="246.942" r="83.495" data-original="#E1E6E8" class="active-path" data-old_color="#E1E6E8"/><path style="fill:#FFFFFF" d="M270.178,338.314c-50.412,0-91.372-40.96-91.372-91.372s40.96-91.372,91.372-91.372  s91.372,40.96,91.372,91.372S320.591,338.314,270.178,338.314z M270.178,171.323c-41.748,0-75.618,33.871-75.618,75.618  s33.871,75.618,75.618,75.618s75.618-33.871,75.618-75.618S311.926,171.323,270.178,171.323z" data-original="#183651" class="" data-old_color="#183651"/><circle style="fill:#FFFFFF" cx="270.178" cy="246.942" r="41.748" data-original="#FFFFFF" class=""/><circle style="fill:#FFFFFF" cx="78.769" cy="180.775" r="70.892" data-original="#FCBD5E" class="" data-old_color="#FCBD5E"/><path style="fill:#FFFFFF" d="M78.769,259.545C35.446,259.545,0,224.098,0,180.775s35.446-78.769,78.769-78.769  s78.769,35.446,78.769,78.769S122.092,259.545,78.769,259.545z M78.769,117.76c-34.658,0-63.015,28.357-63.015,63.015  s28.357,63.015,63.015,63.015s63.015-28.357,63.015-63.015S113.428,117.76,78.769,117.76z" data-original="#183651" class="" data-old_color="#183651"/><circle style="fill:#FFFFFF" cx="78.769" cy="180.775" r="39.385" data-original="#FFFFFF" class=""/><circle style="fill:#FFFFFF" cx="176.443" cy="432.837" r="55.138" data-original="#F05F50" class="" data-old_color="#F05F50"/><path style="fill:#FFFFFF" d="M176.443,495.852c-34.658,0-63.015-28.357-63.015-63.015s28.357-63.015,63.015-63.015  s63.015,28.357,63.015,63.015C238.671,467.495,211.102,495.852,176.443,495.852z M176.443,385.575  c-25.994,0-47.262,21.268-47.262,47.262s21.268,47.262,47.262,47.262s47.262-21.268,47.262-47.262S202.437,385.575,176.443,385.575z  " data-original="#183651" class="" data-old_color="#183651"/><circle style="fill:#FFFFFF" cx="176.443" cy="432.837" r="23.631" data-original="#FFFFFF" class=""/><circle style="fill:#FFFFFF" cx="441.108" cy="171.323" r="55.138" data-original="#FCBD5E" class="" data-old_color="#FCBD5E"/><path style="fill:#FFFFFF" d="M441.108,234.338c-34.658,0-63.015-28.357-63.015-63.015s28.357-63.015,63.015-63.015  s63.015,28.357,63.015,63.015S475.766,234.338,441.108,234.338z M441.108,124.062c-25.994,0-47.262,21.268-47.262,47.262  s21.268,47.262,47.262,47.262s47.262-21.268,47.262-47.262S467.102,124.062,441.108,124.062z" data-original="#183651" class="" data-old_color="#183651"/><circle style="fill:#FFFFFF" cx="441.108" cy="171.323" r="23.631" data-original="#FFFFFF" class=""/><circle style="fill:#FFFFFF" cx="315.865" cy="54.745" r="39.385" data-original="#2AA0DA" class="" data-old_color="#2AA0DA"/><path style="fill:#FFFFFF" d="M315.865,102.794c-25.994,0-47.262-21.268-47.262-47.262s21.268-47.262,47.262-47.262  s47.262,21.268,47.262,47.262S341.858,102.794,315.865,102.794z M315.865,23.237c-17.329,0-31.508,14.178-31.508,31.508  s14.178,31.508,31.508,31.508c17.329,0,31.508-14.178,31.508-31.508S333.194,23.237,315.865,23.237z" data-original="#183651" class="" data-old_color="#183651"/><circle style="fill:#FFFFFF" cx="315.865" cy="54.745" r="15.754" data-original="#FFFFFF" class=""/><circle style="fill:#FFFFFF" cx="409.6" cy="432.837" r="39.385" data-original="#2AA0DA" class="" data-old_color="#2AA0DA"/><path style="fill:#FFFFFF" d="M409.6,480.886c-25.994,0-47.262-21.268-47.262-47.262s21.268-47.262,47.262-47.262  s47.262,21.268,47.262,47.262S435.594,480.886,409.6,480.886z M409.6,401.329c-17.329,0-31.508,14.178-31.508,31.508  c0,17.329,14.178,31.508,31.508,31.508c17.329,0,31.508-14.178,31.508-31.508C441.108,415.508,426.929,401.329,409.6,401.329z" data-original="#183651" class="" data-old_color="#183651"/><circle style="fill:#FFFFFF" cx="409.6" cy="432.837" r="15.754" data-original="#FFFFFF" class=""/><g>
	
		<rect x="390.871" y="288.536" transform="matrix(-0.6393 0.7689 -0.7689 -0.6393 881.5991 179.3068)" style="fill:#FFFFFF" width="15.753" height="15.753" data-original="#183651" class="" data-old_color="#183651"/>
	
		<rect x="420.952" y="313.957" transform="matrix(-0.6396 0.7687 -0.7687 -0.6396 950.5054 198.0369)" style="fill:#FFFFFF" width="15.754" height="15.754" data-original="#183651" class="" data-old_color="#183651"/>
	
		<rect x="451.525" y="338.839" transform="matrix(-0.6396 0.7687 -0.7687 -0.6396 1019.7587 215.3315)" style="fill:#FFFFFF" width="15.754" height="15.754" data-original="#183651" class="" data-old_color="#183651"/>
	
		<rect x="164.746" y="44.463" transform="matrix(-0.8423 0.5391 -0.5391 -0.8423 346.2314 3.3672)" style="fill:#FFFFFF" width="15.755" height="15.755" data-original="#183651" class="" data-old_color="#183651"/>
	
		<rect x="185.95" y="77.546" transform="matrix(-0.8422 0.5391 -0.5391 -0.8422 403.127 52.8722)" style="fill:#FFFFFF" width="15.753" height="15.753" data-original="#183651" class="" data-old_color="#183651"/>
	
		<rect x="207.188" y="110.619" transform="matrix(-0.8422 0.5391 -0.5391 -0.8422 460.0813 102.35)" style="fill:#FFFFFF" width="15.753" height="15.753" data-original="#183651" class="" data-old_color="#183651"/>
	
		<rect x="124.623" y="288.534" transform="matrix(-0.7687 0.6396 -0.6396 -0.7687 423.938 439.5157)" style="fill:#FFFFFF" width="15.754" height="15.754" data-original="#183651" class="" data-old_color="#183651"/>
	
		<rect x="94.006" y="314.009" transform="matrix(-0.7689 0.6394 -0.6394 -0.7689 386.0302 504.2372)" style="fill:#FFFFFF" width="15.754" height="15.754" data-original="#183651" class="" data-old_color="#183651"/>
	
		<rect x="63.943" y="339.001" transform="matrix(-0.7688 0.6394 -0.6394 -0.7688 348.844 567.6489)" style="fill:#FFFFFF" width="15.753" height="15.753" data-original="#183651" class="" data-old_color="#183651"/>
</g></g> </svg>
