<?xml version="1.0" encoding="UTF-8"?>
<svg width="22px" height="22px" viewBox="0 0 22 22" version="1.1" xmlns="http://www.w3.org/2000/svg" xmlns:xlink="http://www.w3.org/1999/xlink">
    <!-- Generator: Sketch 44.1 (41455) - http://www.bohemiancoding.com/sketch -->
    <title>tracker (1)</title>
    <desc>Created with Sketch.</desc>
    <defs></defs>
    <g id="Page-1" stroke="none" stroke-width="1" fill="none" fill-rule="evenodd">
        <g id="tracker-(1)" transform="translate(1.000000, 1.000000)" fill-rule="nonzero">
            <path d="M9.97586957,12.1754348 C11.1886957,12.1754348 12.1754348,11.1886957 12.1754348,9.97586957 C12.1754348,8.76304348 11.1886957,7.77630435 9.97586957,7.77630435 C8.76304348,7.77630435 7.77630435,8.76304348 7.77630435,9.97586957 C7.77630435,11.1886957 8.76304348,12.1754348 9.97586957,12.1754348 Z" id="Shape" fill="#000000"></path>
            <path d="M19.5169565,9.54108696 L17.7941304,9.54108696 C17.5756522,5.56876812 14.382971,2.37608696 10.4106522,2.1576087 L10.4106522,0.434782609 C10.4106522,0.194710145 10.215942,0 9.97586957,0 C9.7357971,0 9.54108696,0.194710145 9.54108696,0.434782609 L9.54108696,2.58007246 C9.54108696,2.82014493 9.7357971,3.01485507 9.97586957,3.01485507 C13.8142029,3.01485507 16.9368841,6.13753623 16.9368841,9.97586957 C16.9368841,13.8142029 13.8142029,16.9368841 9.97586957,16.9368841 C6.13753623,16.9368841 3.01485507,13.8142029 3.01485507,9.97586957 C3.01485507,7.31043478 4.56934783,4.8442029 6.97507246,3.69297101 C7.19166667,3.58927536 7.28326087,3.32971014 7.17956522,3.11311594 C7.07594203,2.8965942 6.81615942,2.805 6.59971014,2.90862319 C5.28586957,3.53731884 4.17413043,4.51855072 3.38478261,5.74615942 C2.65217391,6.88557971 2.23282609,8.18949275 2.1584058,9.54108696 L0.434782609,9.54108696 C0.194710145,9.54108696 0,9.7357971 0,9.97586957 C0,10.215942 0.194710145,10.4106522 0.434782609,10.4106522 L2.1576087,10.4106522 C2.37608696,14.382971 5.56876812,17.5756522 9.54108696,17.7941304 L9.54108696,19.5169565 C9.54108696,19.757029 9.7357971,19.9517391 9.97586957,19.9517391 C10.215942,19.9517391 10.4106522,19.757029 10.4106522,19.5169565 L10.4106522,17.7941304 C14.382971,17.5756522 17.5756522,14.382971 17.7941304,10.4106522 L19.5169565,10.4106522 C19.757029,10.4106522 19.9517391,10.215942 19.9517391,9.97586957 C19.9517391,9.7357971 19.757029,9.54108696 19.5169565,9.54108696 Z" id="Shape" stroke="#000000" fill="#424242"></path>
        </g>
    </g>
</svg>