<?xml version="1.0" encoding="iso-8859-1"?>
<!-- Generator: Adobe Illustrator 19.0.0, SVG Export Plug-In . SVG Version: 6.00 Build 0)  -->
<svg version="1.1" id="Capa_1" xmlns="http://www.w3.org/2000/svg" xmlns:xlink="http://www.w3.org/1999/xlink" x="0px" y="0px"
	 viewBox="0 0 496 496" style="enable-background:new 0 0 496 496;" xml:space="preserve">
<g>
	<g>
		<g>
			<path d="M320,248h144c8.824,0,16-7.176,16-16v-16c0-8.824-7.176-16-16-16H320c-8.824,0-16,7.176-16,16v16
				C304,240.824,311.176,248,320,248z M320,216h144l0.008,16H320V216z"/>
			<path d="M476.576,287.824L456,275.472V264h-16v20.528l28.344,17.008c7.184,4.312,11.656,12.2,11.656,20.584V336H320v16h160v120
				c0,4.416-3.584,8-8,8H312c-4.416,0-8-3.584-8-8v-24h160v-16H304V322.12c0-8.384,4.472-16.264,11.656-20.576L344,284.528V264h-16
				v11.472l-20.576,12.352C295.448,295,288,308.152,288,322.12V472c0,13.232,10.768,24,24,24h160c13.232,0,24-10.768,24-24V322.12
				C496,308.152,488.552,295,476.576,287.824z"/>
			<rect x="368" y="368" width="48" height="16"/>
			<rect x="368" y="400" width="48" height="16"/>
			<path d="M296,96V80c0-8.824-7.176-16-16-16h-8V16c0-8.824-7.176-16-16-16h-80c-8.824,0-16,7.176-16,16v48h-8
				c-8.824,0-16,7.176-16,16v16c0,8.824,7.176,16,16,16h128C288.824,112,296,104.824,296,96z M176,16h80v48h-80V16z M152,96V80h128
				l0.008,16H152z"/>
			<path d="M256,224h-32v16h32v16h-32v16h32v16h-32v16h32v16h-32v16h32v16h-32v16h32v112h-80V128h-16v352c0,8.824,7.176,16,16,16h80
				c8.824,0,16-7.176,16-16V128h-16V224z"/>
			<polygon points="240,208 240,192 192,192 192,400 240,400 240,384 208,384 208,208 			"/>
			<path d="M124.576,239.824l-9.936-5.968c-6.56-3.936-10.64-11.144-10.64-18.792c0-3.392,0.8-6.776,2.312-9.8l9.976-19.944
				c2.776-5.544,3.296-11.864,1.48-17.8L90,77.296C87.552,69.344,80.32,64,72,64s-15.544,5.336-18,13.296l-27.768,90.216
				c-1.824,5.936-1.296,12.256,1.48,17.8l9.976,19.952c1.512,3.024,2.312,6.408,2.312,9.8c0,7.656-4.08,14.856-10.64,18.792
				l-9.936,5.968C7.448,247,0,260.152,0,274.12V472c0,13.232,10.768,24,24,24h96c13.232,0,24-10.768,24-24V274.12
				C144,260.152,136.552,247,124.576,239.824z M128,472c0,4.416-3.584,8-8,8H24c-4.416,0-8-3.584-8-8V274.12
				c0-8.384,4.472-16.264,11.656-20.576l9.936-5.968C48.944,240.76,56,228.304,56,215.064c0-5.864-1.384-11.728-4-16.96
				l-9.976-19.952c-0.928-1.848-1.104-3.952-0.496-5.928L69.296,82c0.368-1.192,1.456-2,2.704-2s2.336,0.808,2.704,2l27.768,90.224
				c0.608,1.976,0.44,4.08-0.496,5.928L92,198.104c-2.616,5.232-4,11.096-4,16.96c0,13.24,7.056,25.696,18.408,32.512l9.936,5.968
				C123.528,257.848,128,265.736,128,274.12V472z"/>
			<rect x="56" y="288" width="56" height="16"/>
			<rect x="80" y="320" width="32" height="16"/>
			<rect x="56" y="352" width="56" height="16"/>
			<rect x="80" y="384" width="32" height="16"/>
			<rect x="56" y="416" width="56" height="16"/>
		</g>
	</g>
</g>
<g>
</g>
<g>
</g>
<g>
</g>
<g>
</g>
<g>
</g>
<g>
</g>
<g>
</g>
<g>
</g>
<g>
</g>
<g>
</g>
<g>
</g>
<g>
</g>
<g>
</g>
<g>
</g>
<g>
</g>
</svg>
