<?xml version="1.0" encoding="iso-8859-1"?>
<!-- Generator: Adobe Illustrator 16.0.0, SVG Export Plug-In . SVG Version: 6.00 Build 0)  -->
<!DOCTYPE svg PUBLIC "-//W3C//DTD SVG 1.1//EN" "http://www.w3.org/Graphics/SVG/1.1/DTD/svg11.dtd">
<svg xmlns="http://www.w3.org/2000/svg" xmlns:xlink="http://www.w3.org/1999/xlink" version="1.1" id="Capa_1" x="0px" y="0px" width="23px" height="23px" viewBox="0 0 485.031 485.031" style="enable-background:new 0 0 485.031 485.031;" xml:space="preserve">
<g>
	<g id="_x31_3_29_">
		<g>
			<path d="M450.381,319.58c-16.887-18.155-39.764-29.205-64.418-31.116l-0.637-0.05l-278.572-0.272     c-54.282,0-98.444,44.162-98.444,98.444c0,54.283,44.162,98.445,98.444,98.445h0.017l277.918-0.273l1.271-0.051     c24.654-1.91,47.533-12.959,64.42-31.113c16.986-18.26,26.34-42.057,26.34-67.008C476.721,361.636,467.367,337.84,450.381,319.58     z M245.357,451.488l-138.615,0.135c-35.854-0.006-65.024-29.18-65.024-65.035c0-35.861,29.175-65.037,65.019-65.037l138.62,0.137     V451.488L245.357,451.488z" fill="#FFFFFF"/>
			<path d="M51.854,256.691c16.771,12.246,37.397,18.989,58.077,18.991c0.001,0,0.002,0,0.004,0c7.085,0,14.202-0.776,21.152-2.31     l0.623-0.137l266.667-80.56c51.947-15.748,81.398-70.823,65.65-122.772c-6.252-20.621-18.732-38.222-36.094-50.903     C411.158,6.748,390.527,0,369.846,0c-9.656,0-19.275,1.432-28.605,4.26L75.355,85.152l-1.205,0.417     c-23.04,8.981-41.728,26.193-52.622,48.466c-10.957,22.401-13.004,47.889-5.766,71.767     C22.015,226.42,34.495,244.017,51.854,256.691z M350.949,36.227c6.17-1.87,12.525-2.819,18.896-2.819     c28.385,0,53.965,18.994,62.209,46.189c10.404,34.319-9.053,70.704-43.355,81.103l-132.695,40.086L218.347,76.57L350.949,36.227z     " fill="#FFFFFF"/>
		</g>
	</g>
</g>
<g>
</g>
<g>
</g>
<g>
</g>
<g>
</g>
<g>
</g>
<g>
</g>
<g>
</g>
<g>
</g>
<g>
</g>
<g>
</g>
<g>
</g>
<g>
</g>
<g>
</g>
<g>
</g>
<g>
</g>
</svg>
